<svg xmlns="http://www.w3.org/2000/svg" id="Layer_1" viewBox="0 0 1920 460" width="1920" height="460"><style id="style3418">.st0{stroke:#231f20;stroke-miterlimit:10}.st0,.st1{fill:#231f20}.st2{fill:#96b85c}</style><g id="g3442" transform="translate(-121.697 -329.35) scale(1.12818)"><path class="st1" id="polygon3444" fill="#231f20" d="M446.9 660.7V330.9h-14.1L296.3 488 159.9 330.9h-14.1v329.8h16.1V359.9l134.4 153.8 134.5-153.8v300.8z"/><path class="st1" id="polygon3446" fill="#231f20" d="M1133.8 661.8V332.1h-16.1v300.7L893 332.1h-14.6v329.7h16.1V361.1l224.7 300.7z"/><path class="st1" id="polygon3448" fill="#231f20" d="M1752.4 660.7h19.4l-125.3-165 125.3-164.8h-19.4l-116 152.6-116-152.6H1501l125.2 164.8-125.2 165h19.4l116-152.9z"/><path class="st2" id="polygon3450" fill="#96b85c" d="M1318.9 329.8l-139.4 329.7h17.6l128.5-304.6L1454 659.5h17.6L1333 331.6l-.8-1.8z"/><path class="st1" d="M663.1 331c-91.1 0-165.2 74.1-165.2 165.2S572 661.5 663.1 661.5s165.2-74.1 165.2-165.2S754.2 331 663.1 331zm0 313.9c-82 0-148.6-66.7-148.6-148.6 0-82 66.7-148.6 148.6-148.6 81.9 0 148.6 66.7 148.6 148.6 0 81.9-66.7 148.6-148.6 148.6z" id="path3452" fill="#231f20"/></g></svg>